<svg id="Capa_1" data-name="Capa 1" xmlns="http://www.w3.org/2000/svg" viewBox="0 0 1280 100"><defs><style>.cls-1{fill:lime;}.cls-2{fill:#f15a24;}.cls-3{fill:#754c24;}.cls-4{fill:#c1272d;}</style></defs><title>graphic</title><rect class="cls-1" x="75.5" y="-10.5" width="124" height="47"/><path d="M199-10V36H76V-10H199m1-1H75V37H200V-11Z"/><rect class="cls-2" x="327.5" y="81.5" width="81" height="40"/><path d="M408,82v39H328V82h80m1-1H327v41h82V81Z"/><ellipse class="cls-2" cx="581" cy="43.5" rx="62.5" ry="6"/><path d="M581,38c16.17,0,31.52.63,43.24,1.78,15.38,1.5,18.2,3.27,18.69,3.72-.49.45-3.31,2.22-18.69,3.72C612.52,48.37,597.17,49,581,49s-31.52-.63-43.24-1.78c-15.38-1.5-18.2-3.27-18.69-3.72.49-.45,3.31-2.22,18.69-3.72C549.48,38.63,564.83,38,581,38m0-1c-34.79,0-63,2.91-63,6.5S546.21,50,581,50s63-2.91,63-6.5S615.79,37,581,37Z"/><ellipse class="cls-2" cx="937" cy="50" rx="22.5" ry="49.5"/><path d="M937,1c5.73,0,11.18,5,15.35,14.06C956.64,24.38,959,36.79,959,50s-2.36,25.62-6.65,34.94C948.18,94,942.73,99,937,99s-11.18-5-15.35-14.06C917.36,75.62,915,63.21,915,50s2.36-25.62,6.65-34.94C925.82,6,931.27,1,937,1m0-1c-12.7,0-23,22.39-23,50s10.3,50,23,50,23-22.39,23-50S949.7,0,937,0Z"/><ellipse class="cls-3" cx="717.5" cy="95.5" rx="68" ry="31"/><path d="M717.5,65c18.16,0,35.21,3.24,48,9.13C778.08,79.91,785,87.5,785,95.5s-6.92,15.59-19.48,21.37c-12.81,5.89-29.86,9.13-48,9.13s-35.21-3.24-48-9.13C656.92,111.09,650,103.5,650,95.5s6.92-15.59,19.48-21.37c12.81-5.89,29.86-9.13,48-9.13m0-1C679.67,64,649,78.1,649,95.5S679.67,127,717.5,127,786,112.9,786,95.5,755.33,64,717.5,64Z"/><path d="M50.46,15.11C69.83,38.48,94,65.59,127.56,62.3c15.79-1.55,26.12-10.81,35.74-22.65,10.49-12.9,27.57-30.22,44.36-16,5.41,4.57,9.49,10.48,15,14.91a51.33,51.33,0,0,0,16.11,8.6,58.46,58.46,0,0,0,37.42-.55,52.66,52.66,0,0,0,15.89-9c.9-.75,2.63-3.13,3.7-3.44,0,0,.74-1.84-.06.23a6.1,6.1,0,0,1-1,1.73c-1.58,1.87-4.32,2.08-6.57,2.65l-8.34,2.11L221.5,55.65C199.88,61.13,178.33,67,156.56,71.82c-22,4.88-44.41,8-66.89,5.23l1.06,2.57q19.55-17.6,39.09-35.2c13-11.62,26.11-21,44.08-22,16.57-.94,33.35,2.71,49.59,5.56,15.85,2.77,31.66,5.77,47.57,8.17,30.57,4.6,62.13,7.19,92.56.29a143.9,143.9,0,0,0,22.66-7.13c7.38-3,14.89-6.81,23-7.21,12.63-.62,21.71,8.34,29.45,17.13,7.34,8.35,14.42,17.68,24.57,22.78,12,6,25.57,4.92,38,.95,14.18-4.53,26.95-12.31,39.87-19.52,14.2-7.92,29.25-14.84,45.23-18.26,16.44-3.52,33.15-2.57,48.58,4.36,13.46,6,25.38,15,38.8,21.1,14.09,6.45,29.37,8.72,44.72,9.55,17.32.94,34.73.93,52.07,1.23q106.26,1.85,212.55,1.25,13.35-.07,26.69-.18a1.51,1.51,0,0,0,.4-2.95Q921.94,28.58,831,6.06a1.51,1.51,0,0,0-1.84,1.84,170.81,170.81,0,0,1,9.66,58.28c-.06,4.56.42,10.3-2.62,14s-8.33,3.4-12.49,2.56c-8.44-1.69-16.48-6-24.43-9.18A922,922,0,0,0,686.51,37.14c-15.63-4-33.15-10.16-47,1.35-6.69,5.56-12,12.81-17.94,19.13Q612,67.8,601.61,77.21c-6.87,6.22-15,15.33-24.66,16.34-8.09.85-15.25-4.18-21.68-8.4-6-4-12.13-7.91-19.3-9.32-8.47-1.67-17.09-.37-25.56.53-9.68,1-19,1.17-28.17-2.6-7.6-3.13-14.47-7.79-21.4-12.15-11.57-7.27-24.88-15-38.7-9.21l1.69.69A242.79,242.79,0,0,0,378-17.6C372.82-23.12,367.1-30.31,359.79-33c-8-3-14.22,2.24-19.9,7.26q-12.11,10.7-24.17,21.42l-49.78,44.1L209.05,90.17c-1.29,1.15.37,3.18,1.82,2.35A320.7,320.7,0,0,1,396.33,51.87a313.92,313.92,0,0,1,54,9.47,1.5,1.5,0,0,0,.79-2.89,323.61,323.61,0,0,0-192,8.47,317,317,0,0,0-49.73,23l1.82,2.36,92.43-81.91L326.37-9.78,337-19.23c3.79-3.36,7.58-7.48,12-10,9.83-5.58,18.39,4.94,24.56,11.4a237.32,237.32,0,0,1,18.13,21.3,243.21,243.21,0,0,1,29.49,51.14,1.5,1.5,0,0,0,1.7.68c14.36-6,27.95,3.58,39.71,11,6,3.79,12,7.58,18.61,10.28,7.55,3.1,15.28,3.87,23.38,3.31,9.22-.64,18.5-2.67,27.76-1.61,8.83,1,15.84,5.86,23.08,10.58,5.59,3.64,11.65,7.36,18.49,7.76,7.81.46,14.2-3.95,19.94-8.73,14.84-12.36,28-26.21,40.9-40.54,7-7.78,14.46-13.29,25.42-12.64,10.33.61,20.77,4.08,30.74,6.67A920.46,920.46,0,0,1,807.74,80.21c7.26,3,15.2,7.08,23.32,5.89,7.38-1.08,10.16-7,10.59-13.88,1.36-22-2.36-44.4-9.58-65.12L830.23,9Q921,31.44,1009.41,62.41l.4-2.94q-107.7.89-215.41-.69-26.68-.39-53.37-.94c-17-.35-34.31-.32-50.89-4.58-15.74-4-29-13-43-20.88-12.69-7.09-26-12.07-40.67-12.31-31.86-.52-58.28,17-85.41,31.08C507.73,58.09,492.36,64.84,476.92,63c-14.15-1.68-23.59-11.51-32.43-21.71C437.77,33.53,430.81,24.88,421,21c-13.76-5.4-26.74,2.19-39.44,7C351.06,39.38,318,39.07,286.17,35.2c-32.65-4-64.77-12.58-97.53-15.46-15.5-1.36-30.69.38-44,9S120,49.25,108.25,59.82L88.61,77.49c-1.07,1-.11,2.42,1.06,2.56,40.49,5,80.88-8.4,119.65-18.22l61.14-15.48,14.82-3.76c3.3-.83,7.75-1.11,10.52-3.24,1.91-1.47,5.14-6.75,2.13-8.69-1.11-.72-2.38-.19-3.36.44-3,1.9-5.28,5.12-8.29,7.13a52.39,52.39,0,0,1-20.61,8c-14.77,2.42-30.83-1.17-42.31-11-10.62-9.1-18.25-23.11-34.55-19.32-16.6,3.85-24.67,19.83-35.77,31-15.12,15.22-37.63,15.5-56.18,6.5C78.6,44.53,65.27,28.3,52.58,13c-1.23-1.49-3.34.64-2.12,2.12Z"/><path d="M579.86,80a467.52,467.52,0,0,0,52.71-26q12.75-7.33,25-15.46c7.91-5.25,15.66-10.87,24.29-14.91,16.52-7.71,35-6.68,51.92-.81,17.64,6.12,32.32,17,46.88,28.35,7.12,5.56,14.37,11,22.39,15.25a90.73,90.73,0,0,0,26.55,8.83,157,157,0,0,0,27.9,2.1c7.46,0,15.23-.09,22.35-2.64,5.77-2.06,11.91-6.46,12.64-13.07.38-3.48-1.89-5.78-4.9-7.07-4-1.7-8.21-2.82-12.26-4.33-17.17-6.41-33.6-14.58-50.09-22.54-16.15-7.79-32.44-15.46-49.49-21.08a169.09,169.09,0,0,0-55.31-8.79C681.3-1.68,642.69,10.92,606.91,26a481.75,481.75,0,0,0-98.17,55.63c-8,5.91-15.84,12.15-24,17.86a128.84,128.84,0,0,1-12.22,7.79c-2.31,1.24-4.87,2.32-7.53,1.75-2.37-.5-4.41-2.07-6.28-3.52A77.45,77.45,0,0,1,435.1,74.65c-1.94-4.59-4.09-9.93-2.7-15C433.56,55.46,437,52,440,49a77.3,77.3,0,0,1,9.05-7.81,88.07,88.07,0,0,1,20.32-11c14.91-5.75,31-8,46.9-7.91,37.87.12,73.77,14,110.33,22.08a275.14,275.14,0,0,0,28.24,4.79c1.91.22,1.9-2.78,0-3-39.33-4.43-76.34-20-115.51-25.26-30.46-4.07-64.6-1.38-90.45,16.77C442.65,42,436.33,47.36,432,53.74c-5.37,7.92-2.18,16.68,1.47,24.62a80.38,80.38,0,0,0,14,20.85,78.5,78.5,0,0,0,9.41,8.64c3.28,2.56,6.82,4.81,11.16,4.21s8.2-3.41,11.78-5.69c4.22-2.7,8.32-5.59,12.36-8.56C500,92,507.64,86,515.57,80.37a477.68,477.68,0,0,1,48.59-30.46C598,31.42,634.4,16.27,672,7.3,691.47,2.64,711.58,0,731.67,1c18.71,1,36.81,5.7,54.25,12.39C803,20,819.33,28.17,835.78,36.09c8.26,4,16.55,7.87,25,11.47,8.1,3.46,16.33,6.38,24.61,9.32,1.88.67,4.25,1.69,4.2,4a9.92,9.92,0,0,1-2.22,5.32,17.73,17.73,0,0,1-8.28,5.57c-7.5,2.68-15.75,2.56-23.62,2.53-19.28-.09-38.61-3-55.37-13.06-15.74-9.46-28.81-22.65-44.76-31.82C740.46,20.91,723.49,14.7,706.16,15a63.59,63.59,0,0,0-25.06,5.66c-8.66,3.93-16.42,9.52-24.31,14.78a462.3,462.3,0,0,1-50.93,29.39q-13.2,6.53-26.8,12.21c-1.76.73-1,3.64.8,2.89Z"/><path class="cls-4" d="M31.44,74.36C50.06,81,68.6,88.49,87.52,94.25c7.14,2.17,14.8,3,21.38-1.21,7.06-4.5,12.55-12,18.23-18l41.6-44.17L189.23,9.1c6.33-6.73,12.36-14.37,19.5-20.25,4.37-3.6,9.28-5.12,14.58-2.37,4.39,2.27,8.12,6,11.92,9.1l23.18,19L282.25,34.2c6.65,5.46,13.1,11.52,20.24,16.34s14.38,5,22.45,3.06c9.22-2.17,18.31-4.84,27.56-7a553.27,553.27,0,0,1,58.18-10,559.85,559.85,0,0,1,128.41-.15v-3c-31.61,3-63.4-5.39-94.43-10.28-30.34-4.77-60.81-8.81-91.39-11.74-62.12-6-124.83-7.38-187-1.16-31,3.09-62.27,8.35-90,23.22A1.51,1.51,0,0,0,76,35.9c24.65,22,57.37,32.37,90.06,33,35.7.66,70.5-10.68,101.89-27,8.28-4.3,16.37-9,24.29-13.91,7.66-4.78,15.06-10.93,23.45-14.38C333,6.47,345.4,22.8,359.76,29.22c14.69,6.57,31,1.6,46.14,5.67,8.32,2.24,13,8.28,19.44,13.39,4.63,3.66,10.5,5.81,15.87,2.26s6.64-10.53,10-15.74c2.86-4.5,9.26-9.45,13.45-3.44,2.11,3,2.54,7,4.73,10,3.47,4.82,9.73,6.17,15.33,5.13,7.49-1.39,13-7.18,17.63-12.79,11.62-14,24-27,38.18-38.38,14.37-11.55,30.93-23.49,48.62-29.24a50.14,50.14,0,0,1,30.3-.36c9.21,2.71,17.85,7.16,26.43,11.41C661.76-15,677.41-6,688,8.68,703.52,30,710.18,61.37,735,74.57c6.59,3.5,14.46,5.71,21.78,3.27,6.58-2.2,11.35-7.72,15.09-13.32C780.27,52,786.47,37.93,797.3,27.13c11.17-11.14,26.22-14.93,40.85-8.3,13,5.88,23.26,16.4,34.61,24.75A84.79,84.79,0,0,0,890,53.68c1.78.74,2.56-2.16.8-2.9-13.63-5.73-24.36-16.33-36-25.11-10.35-7.8-22.31-14.63-35.75-13.08s-23.56,10.77-31.34,21.17A200.23,200.23,0,0,0,775.89,52.1c-4.17,7.06-8.09,15.17-14.86,20.14-14.51,10.68-32.68-3.74-41.41-15.33-8.46-11.26-14-24.39-20.79-36.64C691.38,6.87,682.21-4.38,669.42-13A194.21,194.21,0,0,0,646.05-26.1C638.12-30,630.14-34,621.69-36.72c-17.72-5.62-34.17-1.37-50,7.4A236.73,236.73,0,0,0,528.25,1.79,241.76,241.76,0,0,0,509,21.11c-5.81,6.53-10.88,14.78-18.27,19.65a16.87,16.87,0,0,1-12.34,2.85c-4.8-.9-7.06-4.16-8.78-8.4-2.08-5.1-4.95-10.88-11.55-9.57-6.81,1.35-10,8.45-12.61,14-1.54,3.28-3.33,7-6.66,8.83-4.86,2.61-9.64-.78-13.21-3.9-5.28-4.63-9.74-9.5-16.55-11.87-7.18-2.51-15-2.47-22.49-2.53-8.51-.08-17.36-.06-25.29-3.56-6.95-3.07-12.86-8-19.28-12-5.67-3.5-12-6.36-18.83-6-7.91.48-14.65,5.05-21,9.29-31.19,20.74-65.27,38.27-102.42,45.07-34,6.23-70.72,2.53-101.13-14.62A117.31,117.31,0,0,1,78.11,33.77l-.3,2.36c25.41-13.63,54-19.06,82.41-22.18a823.46,823.46,0,0,1,91.55-4.67c62.12.11,124.09,6.38,185.44,15.8,16.9,2.6,33.73,5.63,50.61,8.36s34.09,4.68,51.27,3.06a1.5,1.5,0,0,0,0-3,559.52,559.52,0,0,0-113.83-1.36Q397.48,34.66,370,39.92q-14.4,2.76-28.64,6.29c-8.95,2.21-19.7,7.06-29,5.43S295.28,41,288.34,35.34L265.83,16.85l-23.18-19c-6.07-5-12.54-12.17-20-14.95-6.65-2.47-12.66.73-17.52,5.22-7,6.45-13.22,13.85-19.74,20.76l-41,43.55L120.91,77.28C114,84.65,107.28,94.05,96,93c-5.47-.5-10.72-2.66-15.84-4.48l-16-5.69L32.24,71.47c-1.82-.65-2.61,2.25-.8,2.89Z"/></svg>